# xmcd CD database file
#
# Track frame offsets:
#	150
#	49012
#	100582
#	146325
#	187810
#	246065
#	311162
#
# Disc length: 4751 seconds
#
# Revision: 2
# Processed by: cddbd v1.4PL0 Copyright (c) Steve Scherf et al.
# Submitted via: CDex 1.50
#
DISCID=52128d07
DTITLE=Dya Singh - Australian Sikh Rhythm and Soul
DYEAR=1993
DGENRE=Ethnic
TTITLE0=Mool Mantr
TTITLE1=Pavan guru
TTITLE2=Mittar Ptare nu
TTITLE3=Jo tao prem
TTITLE4=Aval Allah
TTITLE5=Bhinni Rainediye
TTITLE6=Hey Gobind, Hey Gopal
EXTD=YEAR: 1993
EXTT0=
EXTT1=
EXTT2=
EXTT3=
EXTT4=
EXTT5=
EXTT6=
PLAYORDER=
